<svg height="32" viewBox="0 0 8.467 8.467" width="32" xmlns="http://www.w3.org/2000/svg"><path d="m12 1a1.0000999 1.0000999 0 0 0 -1 1v4.9980469h-4.9980469a1.0001 1.0001 0 0 0 -1.0039062 1.0039062v21.9980469a1.0001 1.0001 0 0 0 1.0039062 1.003906h13.9960939a1.0001 1.0001 0 0 0 1.003906-1.003906v-5h4.998047a1.0000999 1.0000999 0 0 0 1-1v-22a1.0000999 1.0000999 0 0 0 -1-1zm1 2h12v20h-3.998047v-14.9980469a1.0001 1.0001 0 0 0 -1.003906-1.0039062h-6.998047zm-6.0019531 5.9980469h4.8183591a1.0000999 1.0000999 0 0 0 .353516 0h6.832031v14.8164061a1.0000999 1.0000999 0 0 0 0 .361328v4.828125h-12.0039061z" transform="scale(.26458333)"/></svg>